<mxfile host="app.diagrams.net" agent="Mozilla/5.0 (Windows NT 10.0; Win64; x64) AppleWebKit/537.36 (KHTML, like Gecko) Chrome/133.0.0.0 Safari/537.36" version="26.0.16">
  <diagram name="第 1 页" id="kGOCe60bXOP5jd2VuHdy">
    <mxGraphModel dx="624" dy="355" grid="1" gridSize="10" guides="1" tooltips="1" connect="1" arrows="1" fold="1" page="1" pageScale="1" pageWidth="827" pageHeight="1169" math="0" shadow="0">
      <root>
        <mxCell id="0" />
        <mxCell id="1" parent="0" />
        <mxCell id="xNk824SL1mtJElE5JXy6-5" style="rounded=0;orthogonalLoop=1;jettySize=auto;html=1;shape=flexArrow;exitX=1;exitY=0.5;exitDx=0;exitDy=0;fillColor=#FFECEB;strokeColor=#b85450;opacity=80;" parent="1" source="xNk824SL1mtJElE5JXy6-1" target="xNk824SL1mtJElE5JXy6-3" edge="1">
          <mxGeometry relative="1" as="geometry" />
        </mxCell>
        <mxCell id="xNk824SL1mtJElE5JXy6-1" value="代码生成" style="rounded=1;whiteSpace=wrap;html=1;fontSize=16;fillColor=#FFECEB;strokeColor=#b85450;opacity=80;" parent="1" vertex="1">
          <mxGeometry x="374" y="222.25" width="80" height="50" as="geometry" />
        </mxCell>
        <mxCell id="xNk824SL1mtJElE5JXy6-4" style="rounded=0;orthogonalLoop=1;jettySize=auto;html=1;entryX=0;entryY=0.5;entryDx=0;entryDy=0;shape=flexArrow;exitX=0.5;exitY=0;exitDx=0;exitDy=0;fillColor=#E5F0FF;strokeColor=#6c8ebf;opacity=80;" parent="1" source="xNk824SL1mtJElE5JXy6-2" target="xNk824SL1mtJElE5JXy6-1" edge="1">
          <mxGeometry relative="1" as="geometry" />
        </mxCell>
        <mxCell id="xNk824SL1mtJElE5JXy6-2" value="缺陷定位" style="rounded=1;whiteSpace=wrap;html=1;fontSize=16;fillColor=#E5F0FF;strokeColor=#6c8ebf;opacity=80;" parent="1" vertex="1">
          <mxGeometry x="280" y="310" width="80" height="50" as="geometry" />
        </mxCell>
        <mxCell id="xNk824SL1mtJElE5JXy6-6" style="edgeStyle=orthogonalEdgeStyle;rounded=0;orthogonalLoop=1;jettySize=auto;html=1;shape=flexArrow;fillColor=#F8EBFF;strokeColor=#9673a6;opacity=80;" parent="1" source="xNk824SL1mtJElE5JXy6-3" target="xNk824SL1mtJElE5JXy6-2" edge="1">
          <mxGeometry relative="1" as="geometry" />
        </mxCell>
        <mxCell id="xNk824SL1mtJElE5JXy6-3" value="代码验证" style="rounded=1;whiteSpace=wrap;html=1;fontSize=16;fillColor=#F8EBFF;strokeColor=#9673a6;opacity=80;" parent="1" vertex="1">
          <mxGeometry x="460" y="310" width="80" height="50" as="geometry" />
        </mxCell>
        <mxCell id="xNk824SL1mtJElE5JXy6-27" value="" style="sketch=0;html=1;aspect=fixed;strokeColor=#C3ABD0;shadow=0;fillColor=#CDA2BE;verticalAlign=top;labelPosition=center;verticalLabelPosition=bottom;shape=mxgraph.gcp2.arrow_cycle;opacity=90;" parent="1" vertex="1">
          <mxGeometry x="569.01" y="289" width="40" height="38" as="geometry" />
        </mxCell>
        <mxCell id="xNk824SL1mtJElE5JXy6-28" value="执行闭环" style="text;html=1;align=center;verticalAlign=middle;whiteSpace=wrap;rounded=0;fontSize=16;" parent="1" vertex="1">
          <mxGeometry x="550.01" y="332" width="80" height="30" as="geometry" />
        </mxCell>
        <mxCell id="EOJE2pR3Mg9_X-4Fzu6O-2" value="" style="group" parent="1" vertex="1" connectable="0">
          <mxGeometry x="100" y="210" width="100" height="70" as="geometry" />
        </mxCell>
        <mxCell id="xNk824SL1mtJElE5JXy6-8" value="SQL提取方式" style="text;html=1;align=center;verticalAlign=middle;whiteSpace=wrap;rounded=0;fontSize=16;" parent="EOJE2pR3Mg9_X-4Fzu6O-2" vertex="1">
          <mxGeometry y="40" width="100" height="30" as="geometry" />
        </mxCell>
        <mxCell id="xNk824SL1mtJElE5JXy6-9" value="" style="shape=mxgraph.sap.icon;labelPosition=center;verticalLabelPosition=bottom;align=center;verticalAlign=top;strokeWidth=1;strokeColor=#6c8ebf;fillColor=#E5F0FF;gradientDirection=west;aspect=fixed;SAPIcon=Document_Information_Extraction;fontSize=16;" parent="EOJE2pR3Mg9_X-4Fzu6O-2" vertex="1">
          <mxGeometry x="30" width="40" height="40" as="geometry" />
        </mxCell>
        <mxCell id="sMjzYtgNe8w-iWZpTy6z-1" value="" style="sketch=0;outlineConnect=0;fillColor=#F19C99;strokeColor=#b85450;dashed=0;verticalLabelPosition=bottom;verticalAlign=top;align=center;html=1;fontSize=16;fontStyle=0;aspect=fixed;pointerEvents=1;shape=mxgraph.aws4.sagemaker_model;" parent="1" vertex="1">
          <mxGeometry x="486.82999999999987" y="212.25" width="40" height="40" as="geometry" />
        </mxCell>
        <mxCell id="sMjzYtgNe8w-iWZpTy6z-2" value="检索增强" style="text;html=1;align=center;verticalAlign=middle;whiteSpace=wrap;rounded=0;fontSize=16;" parent="1" vertex="1">
          <mxGeometry x="465.8300000000001" y="252.25" width="84.18" height="30" as="geometry" />
        </mxCell>
        <UserObject label="" tags="Background" id="HH55Jwbrk8NLowNyaDaS-1">
          <mxCell style="vsdxID=1;fillColor=none;gradientColor=none;image;aspect=fixed;image=data:image/png,iVBORw0KGgoAAAANSUhEUgAAAJYAAACWCAYAAAA8AXHiAAAAAXNSR0IArs4c6QAAEnBJREFUeF7tnc2TFUUSwLPnvWEA5dMId8UVB1z34mEh8LQr4RDBeW+e4V34DzZ2b8hN/wUugx/rKqj7DxDhEHBZZcQvcD2IzwMgos6eFtB53Wu+fs10V2d1fWa97kd1hAHyuqursn6dmZWVVZVAvKIEGCSQMJQZi4wSgAhWhIBFAhEsFrHGQiNYkQEWCUSwWMQaC41gRQZYJBDBYhFrLDSCFRlgkUAEi0WssdAIVmSARQIRLBax8hS6tHx3EUteB1hMoDf+ewbZ0/hnArAIkFzI/200xD8vDbas8NREXWoESy2jqd2BIK3D3LEcnGwJIFmyqAxCtpJB+lpI0CJYFj3F9UgBkgNEqqoFgyyCpeoK5t8DwCRrwRlOLRbBYgZHVvwLy/dPmmimXZsT2LUFYP+uuXGRu7YksGtzXjr+vbjW7mawdi//v+s/pbB6K21sYQbw8qXBwinfYohg+ZZoQ3kb2gmOw9jZll8I0qE9c2NoDj2Rw2R7rd3LYPVmOv4P/05cwx6kR1YGW8ZOv48rguVDiooySkC9XLsVe2DS1wVMR/f3WGqFUF1fy+D81yMKMK9wRbBYujAvtBGo0nv/tLcHf/kDD0xU8woNdv76SPx5mEE68DF6jGAxgZX7UFDXUJL3/fXP8/BYyVdiqlal2OtrKZxeXa/B5cMsRrA892ATUIWp2701gbNfVDv08UcSOH6gD7sDw4Xa6/TlddE0Di8OFva5iCaC5SK90rNo9kYw9wHllFO+01c/ZrB85ZfK2x/fCjA4OF8Z5XmqXmMxCNerl6p1cR0tRrAce24C1EmA8UivdqEjLnPGv/oxheUrdc01ONgHhDHkRZhFJ2c+bO1DSirAu15YvruU5Fqqdu3flcBLz6kB+eqHFJY/qcL1m4lZLMenAjQHzl1dF+NeZy4OFgY2745gWUgt11LJMjV3h5rmped6DwKZOsX/54cUzhBwoebaGVBzESbRepQYwdLp+dI9Mi3lGoP68k4Kr31a1Vy/fTSBwYF52DGJsBtW1ep2jNSj5iouW18rgmUgftmID83eiUPzBiXRt1JwPfFoAscPzsOOBefitQqgtJbNCDGCpSHuJtPX5JxrFF27hYRrW665tgeC6/TqL+MI/YbWSo+YBk0jWIrel5k+XefcBq5rd1J4XTCLe7YlcOxAH3Ys8HeZOEK0MYf8tbSRbEuekZk+31qKau61Oxm8/mk1trRn+xwc/2MPtjPDVTeH2crFweYjJt0SwZJI6/DyvQ/EUZ/NiM+kM8R7r95J4Q1Ccw0O9GEbM1wYMC1lQhhH4iNYQm/K/ClfDropaF/cSeFNAa4nt+fTP9s28XWf4GdFsEw7rny/zJ/CfCgMdk7ruvp9Cm98Vg1FPLktHy1u28RTK8x8KGc/9CDdZ5KvxYc8T3vZSpVBhUC5Jtr5qPQX36fwpgjX9ny0+CgDXBEsD71GQRXan9Jpxue3U/jH51XN9bsJXI94hksEKwOzkMNDr7EOL/98HCBbLncsQvW3F9wDnjqwmN7z2e0U3hLgegrhOjgPWz1WuR6Bj2Bp9xUF1bScdO1KA8Bn36XwlpDP9dSOOcDRoi+4IlgmPVK69/DyfdRSlVSXLkBVNIEyi3t3zMGxAz14ZN7dEEWwLMDqOlRFkymzuHdnHkTd6ghXdN4NwaKi6V3SVGJzP72dwj8Fn2vvDvS5+rClb6+5IlgGYFE+1bRjVAbVl976ye0U3hbgenpnHorYbBl+E5P+Lg7MQv32SPuQSMAyqJBCaE1VTJHgamW88tXMfrrgyncpvCM49Is7MUJvB5cwpQMRLALWaUFVrN/DbIFyGooY2kDA9++ecw7EfvJdCm9TcB2ch82Gyxb/fv7ncjWNU5T9fC4BNY/pq6YBVcOC0Mbqu2ahYuFXbqXwTikDFP9tcWceiljQNItEsl8Eq9xzkxU035T/jdv8SRaBGn0PCNiJ59ULMWSFfnxrBGevVlc570O4DvZhk4bmEkMNAMng4mDTGZNGzLTGElNfuCPq9Q6pdMUQIBtmkKwkkHwLkL0IkOEufORmaljXo8/0rM3j6s0RnLtWhQt3qsFQxCbFaFF03E0noLHVMwsWlU914lDfaPWMyRcqDs9LzzaakWL7R2rVj+t85ce3UjgrmEWEa3CgB/M9ede7Ou6tBAt9IoC5F3HvKPy6bfZuomJVnFDJ9kAw2WBDtoGIs1m8mcLZa9WJa3QHcLQoM4uujnurwJo42TjNIu4bZeQ4Us46d+qL0BG4L5FxKm+h4ail+q4mnDLRCBdOXM8LW2/58K9aAVbTngcTYWsv9aacde4AKLF62DjbUjS5VDtcNe7lWym8K5jFZ3bnQdR+CS5xhY6NfzVVsJqWVImC1m2c6FdxjwCxnqK2Ms1bkvlxojl31Vr4no9upvCeYBZ/P4GrN4Gr2h57zTsV51211Y+4naFO1JcqE3OqfEW2KQAIE2NktpsGB9SH56q18H2Xb47gXWG0+OxjmBXRh5VvqunINmGGok1BwWrwo8YA4J4HuDFreYn3rz6XsrMov8pHJ6hGhb7MhlxrVTcd8bXs7KMbI3jvy2oo4tndc3Dnfxn8t7RHqc4HLat7MLBkWkqMNotDXR0zeHj5PgZBHzj9vjpABZZoBl06gnqX6Gv5MIfFez68MYL3BbjGv23siar8oJvkww6WyfJ0G9MyDb8KBUqEGJw6QtZJ5Y/GJ1j4vg9vpPD+l7WtIvODVCAzXlZfbgMrWE07s1Bb/ZjuGUCVz+1XFcLzNSxXaUXxw/Hdvn/fSOFfZbgw8SIB42wGsR1sYNksTxdMi3LYLppA7nhVWXihwBLl6BssbNO5qyNYvVXxuZy1LwtYNsvT6/Gg5olPUeAhQgtlsHxsnKHSVvi7mEbNARbHIMQ7WBRUOp1u4ghPaxTYBJZLtL0JMFErv3LU7wJCLl/RK1gUVDojNFOnXXyPzjt0tIPJPb42KFO98/Dy/QcbVfl23vHdpn6tqr7e41gUVLo+j4kqFvPWOYStKzyx3r7DDWJbfU9P1T9o+0g7i/NOLVLQhcpUFYumIUQgVAYakSrj7PSW3yV+rL7bKsYMfU1HFeEw3Q+UvI+aMNWFKh+RVLeAbmqcCLCO7+bUOMXDPncZFl/FrZk5tZUXsFwDlCZOe5u0VQFCqOwGk49V52Pimjz34mO5flUmIQYxvODb39DpDOoe6rgQnflN2fuomQrfmtnnQQGydjiNCl19AJMU2PLoCBvDEc+xhUuS666dR1a8VzZT4dO3oj4EnflYU9k4grUxFDbVICYhBu7RkanQqPslOe/DDOCMKr26aT7VJ1R0eKFlR/eKnW3iA+BXg+q4vIiz6asRfas2aasCMo21hOMT5AGSCxmMhkVev2yVDpbrGyoqN993iMTZxxLNoE5EGL9qelWwPH7SBW1V1mANq3W0FaPr6hzZi0TXwyWRT9UYa1NY9nmazKDGlwzNIYbqtti+v2KVgGx+12mzrFyuWQQxmMs1BeVBYzX7V+hDXf8pFY8pE+U5BEhOyVbZis6s79GRDTQmz+js3YDl+Vha31QvygT6DIZS73bRWA+yNguNZfClajm14sy+iR9nAkCIe1E2uMsMpl7nMOV/4gJSzosOh5gvmTetowNYGyYKvzjUJqilGq4xTH1IX9PdL5x7Zt9UWF28P7QJ9GAK60eCSASvpZ3EZ7vmtLcROmIgoUye9NUOa43VtIQLK4cnRplopzpY1c1nu+C0++oUH+VMw68q19saLElQz0o7UYIsjzq75rT7AMO1jHrmAk8gVFZPa7CKAnPAeks9GK3o+k4qoYlmkGsIrqpHV3+fll/lRWNxCj1Enjdn/adZNhWg5Q4tUO111lgcQoyjQTup0pPh/KGFLoH1IM/bdHLbrku6/5Rkjy6vGa0mUmqdxnKZ3DZp+CzdS0PlL3/dRlYtBKsaZoiOe3O30pH16UKFNW4hWPVj3iJcNFwI1enL6+Wzm/HGYEHQJuRbB5ZsL84IV70b62EFMM5atTFzOs+0DiysdIRL3XUEVI3pR+oS/d7RSrAKuKgtqqPmqq9eRnlNI1bVKVNYrqwsF/xhhqvtmqrov9ZqrKKCEa6NT42CijO92MU4th4smVnkzrp0ESrHs7SmCjuxbNKuToD1MMNFrWjKO3g6UzW6cHUGrIcRrq5CNbUAaXEwkU2aDeVzzaJZlB1P17bRn0yDBdNYkxU3x36NDB/fqIydOp91uGTH03UFqiAaS3W0ie2+AbMKl3ypfjq4NNiyouvjTPs+Vo1FbchWb7Cd1po1n0vuT7Vj7s8UVDawqK0jqcq5qvdZ0Fzy436nn6VgChRbgFRm+oqjaIVzcrzMxMvO+Du0Zw4wSt/mS7bXA65yUu1S0+Z2edVYMqiKVTaiEH0KTwYXdQJGGzqkwfS1PkalIz9vYFF7kWIFinm9EFvodAWuhpPuW5P2ogNP0z1ewJJBVSwypbIcfWqrcgPbDFeTluKShysgts87gyUzf+WVy6HXubURroZ9s4Ymh5LbdnTo55zBokZ/zVCFyXJsC1zNvlR3R30qUJ3AsoAqaELaNOFSbOnkbSsCVQdP63drsKhNQRSaKihUhUCnAVfzdpGzq6XKEFuBRTnr5axO3wlpkwj+i5gOD5ANe5ANTCawQ8Gl2H90Jn0pr5PQogks7+gn7oacv9hu2kZ+OLn5V88Fl8YuhjNv9ii4jDWWuC9ocfqWPDZjB5VqSshm8tonXBpAjfcI63L03MU/MwaLOo1i9Sa9ia3NPKAqG6JorO3+5C5w6W5WizsSm5prl05s47NGYFG+FWosFLh42UAlO/KjLjhzU6gTRD3xfH+8g3H5KjalxcMO0Idqulx3MWwjILZ1MgJLr+PtvlbZ1pPov4mb5tqYQVFAMs2FcOGFWpg+7KAmamcfajI4OZmXnA0zyE51KffK2ceSO9MTkVj6FE2Hk+enWZQ1opu2Umkugy/UCagJ2AhTKaN24+0+Ph6Dtni/1Uhj4dslmuVMD9JTJiGAoiVNh5OH2PWX0lwNUjbeUlwsK9dO6bGmM3Qmz0xtbysflBmDlcN1dyk/ZCj51nbvUdVC1JC7/irgcoYJZVYyd4s6Hdf1EaUVWDqCabpHBlVx8kTIbIiiniXTtIQHHQCkF3z4OeJ+qpRc0I9Ec18dBNmFaVz7xtfzwcGSaYemFBvuA4V8CXPDvKvNXZFRi1BRZ0tfHCzs812vkOUFBUuVt4UNp/Z86oqQdcwdgoQp0+UzdMQ2d90MYj8GA8sub6t92/NQX72uuTv6TK8WJyN8SS/rAEJqJ+dwg21lpwkVvttmtKrTVp24nurEsvoJEukRH76dTv057wmisULmbRErrhvPRHQRrrgffVEWZe6o94QIp7i0z+VZdrBCQRU64Ej5iwgUZe6oDgp1mrwLHC7PsoJF+R6qZECbFBsdk2RTbpNgxbaZnk42iw57WV5sYFHL63mgun/y10a8rP66/MWFRG1VpA6p65DfMcsmsJABC1iUBikyTH3u+STL2UKH+fzXo0rA0TbNhoJFnNYy2ROVDv7OhsPOqrFkvgd2ti+oZKNMXHGN78HMhGqKi7+JaxRe+SxF/P9Xjm7SVVZEnM5v3bQrwnyjd40lapFieb2vjcRUc4zcTrH44Zhoq4fBBLKYQtFEqNKWbZIBm0aZIeYYbZ32kJPqzMpIq3hvGosygeis1/Op8nr5hgrL5J4OsnXaaahmOx/eG1jil4wmEK9qkt4YKat88FDxsKbP0cZpb+ORb1oqx/EmL2DJJpfrdbNzVFWLY3HJmZi+bKMRVbI0ddolfuVMzAWqZOUFLFm+evXldnEkKnRRnn+jofJvZkyddtleol3J1FCBo/o9AFjZiu3iALsV18CS0mvitNMrwbu5l6gKINnvnsC6u5TA3AfiS1zzimShC4mjjv/MApWu0960VdHDoqm8hxtyk5WcBEgwm+CCbS58UTFZZ6Lfcu5qNaqejzL9m7+iLuL0FA5MMH61dg9g7W42/k/08TY+Mju/0lZTtOU5LxqLozGi6Sk2qaUXjdr5b7r11ttWnBiqwOxN1ejKrJVgca+41hWOoD3R1GutsEGTbLsczrRubb2/M2BRoQvbQYFNZ+jks0egNiTbZrCkGoLTn1JBh9p0HWAxgd5Ye2UwGvYBhlzpz6r6tPX3VoKFwqJjY/ahi7Z2wKzWq7Vg5XC5r7ie1Y5re7taDVbbhRfrJ5dABCvSwSKBCBaLWGOhEazIAIsEIlgsYo2FRrAiAywSiGCxiDUWGsGKDLBIIILFItZYaAQrMsAigQgWi1hjof8HF1KlS/rV6gIAAAAASUVORK5CYII=;strokeWidth=2;points=[];labelBackgroundColor=none;rounded=0;html=1;whiteSpace=wrap;" vertex="1" parent="1">
            <mxGeometry x="180" y="287" width="50" height="50" as="geometry" />
          </mxCell>
        </UserObject>
        <UserObject label="" tags="Background" id="HH55Jwbrk8NLowNyaDaS-2">
          <mxCell style="vsdxID=2;fillColor=none;gradientColor=none;image;aspect=fixed;image=data:image/png,iVBORw0KGgoAAAANSUhEUgAAAJYAAACWCAYAAAA8AXHiAAAAAXNSR0IArs4c6QAAEGFJREFUeF7tXU1sXUcVPuc+p1WlAmJBVUeqKDQRrbLDrEpS0dptRbBdBAIJCSE2TVqnbAhigZCMJVZAdiXNzwaJFYJNbTeREjupSiokqLtERXEWrYQtISEqRCgNfvfA3Of78vx637vnnJm5M/f6vo0TvbnzZs58c84335mZi9B+Wgt4sAB6qLOtsrUAtMBqQeDFAi2wvJi1rbQFVosBLxZogeXFrG2lLbBaDHixQAssL2ZtK22B1WLAiwVaYI0w6xdfevWg+Qq7nUmAdGpPMcTt/v8Jt268MrvhZXRqXOm+B9bRF1enDHCSBDLwEPX+Sj8IuAVI2ynhFgC8fePs3Iq0jiaVrwxYX7p+feJTDzyQ/PbIkTshDWg8EXZxFhAnEWjOZ1sM2FKADSBc3W9ezTuwZq7d+hoRfQMADmeDSLSdYPLa1elHzvkc1MG6czAZr6T1SLZtzUBGtAqQbOwHkHkF1vT1za9CCj8uGhRM4TdrTx/6ue2AjXveAKpDuBgKTKPatuvJLjY5XPoF1vqtXwPQY6MM/O/77j32h8cf+sA1uGIF1HA/cy9245X5C65tELo+v8Ba2/wjICSjOtnZ6X77yrOfe8eVEfKQhwgnXNVZRT09gOFSk0KkP2AR4fS1W38aOzBE31mfOfxn28GrK6CG+02AK5SkF998+Tmzsqz1xx+wAGBm7ebvCPHhURbqJp2Z15/8zPs2Fjy6sDKHQIs2dcT0bFPCo1dgPbW++V0EeKlw4IiurM8c/pHNoB59cflE3cIet79EcKHO3MsrsIwRZ65ufo+QvgWI9+RGRYDLBz6kn14+fvhDrqGH5YMqVnt7RE+ibaN9mXYkSAeBcJKAMnXe18f8fjdJX3ARGmd/cGkOCWYBYJIIN5KJOxeXf+Yv5HoHVmb0n1DyzJPvfhrTnQ7duX/7yrMP3tYOhuFTSYrL2ueLnhvUmKjT3ZYMZD/1kyZGsf+8a9HVRWicO33pPAAOZRRoixAurv7iuJcMQTXAcoQCl3wqHzDq0KoESJyuuBZkbcD1ldOrUwl0zhe3m7ZWzhyf5/RJWqY2wHLBp2wGSGrYvLzLFauGd81+//IiIoxMXaXQPfnaGfdJ9FoAywWoNIOiBVPRc64AJu1HcRi820JCWvIRDqMHltl9gJiOcOXlQy8diPIa7Uq4AJikT3OnV08AdEYKxti5M++DxEcNLBtQ/d/9b3SRllzzJztY3X3aFmBccM3/8NWD1D1wDgALVrC0sXLm+ElXfRqsJ1pg2az+uEb3YVBJnTbgkqSBisHlD1TGBs6A1Vt99DbJmT1ItoTwiVPL56W7EiTGlgDAd1ntaleicxlwZWOTHpjywamGbeQEWMUEsXth5cysKmuvBZUrMdE3kEaR+06anJOKribkv/HLeS/hzMYO1sAaTw7l4Dq6sLIoFRljNa50YLShMcbQ7wBYl98abUBZHNfwqqaAalD3kqarYqQAVsDqkcJ7xqZXVs58+QvcmSsNgU0D1R5wCcNibLawApYxxNzpS8vFS1nzLT9lIJUWzCx94+ycl3QEdyL4LJftghWCiwCXYtnu7ABY4wQ4PseSeiui5GSTdlyOIvSShHtMk80aWLteqyh7zhbfpMtt36B6+so7B9NkwmwxATRbZai3Pcb8m3rbZ7bMX0LavjZ92MvugBxoYttE4rWcAMsYIdexiDqThN1ViY71xMLKMneZbbbv3jg7t+Q6DOVgQoApQv6h1QR2QQawkaQ7q1efedT5tmLJSjkWr+UMWNqBliaYf392nr0Y4LSp750cHMAwIDNnB9dnDqn0u1Htla6WY+BawYF1bGF5jFyx19SuDTa9tnkCHABqGBA+ACaZgDF4raDAkvAHl8YyXoqSiUVJyON4vyKAQfe/L7gIj9JVom8eWmaP0MBiq+yuDGVABZ0D51LP+9Vzwxvv5QpcookYONUTFFhc0u5K/Hvm2uZUl0C9t6tslo763oALkZauPHXI6rojyQlvlx5e0+9gwJLMPhfcKiPpnQmnhzAkBnfluUR2C6j1hQQWOwy6WAnOrG2e982pyoBmwHV1+hGrbIFkhejK05f1q+j7YMDihkEXulUMoMqNj4Ara9OPWOlw3CxFyHAYBFgid26pJIfiVeNmeQfhpA3fEtkvUDgMBazKwmBM3mpwpWgTEiXhMNReraiBZRsGn1q/OYeATi4M6aduBOmecV6LgJZs8ozccLivgMU2imUYfHr91rKVXkVwoZPAxmDYMqtLnJiY7KYwZaPa2xJ5rhIfisAH8Vhc4p4mNG9zfGt6fZOdLhr0LlzdyVZsteFa3P1roQh8EGBx84M2wNKGQSTYWJs5xD6ckKWHOgeeJ80NzAQXtAlrLrDMhHEh10glh6iBZWMQDWnXhiet55KCeHBwJQTeZoJKAXVXVtE+qXyOO9NsXbgmDNqEJo2soQWyMb0EWK7yrJIhr9xjcTUYG9KpSd/YeI/c4Cov2d2Z1+5+4FKKFlgDU8JGatB4DxeKuGZ/l42XZK+uA4ik1Xss5r2hNsDSEHdbXcnMCQ2gKwGWpWwjCYEBORbvQtqqgWUzwLkxNSHYBtBc2cbF7hApuKr3WMzrs204VtWeIzd61Z6SDaz9EQp5F6lVDSyw0JT65H391qJUz7LxlFzy3soNA/7WRm7QhCQXq0JNCimpYFVoowdKQ2AwjsXVX6oGFjeNM8rQmvBr6lqfPqQ6zsa1475R3qsyiEpTstjhqfk9Gy/J1gMD3XFROXk3M4jLDWyEPY2mZNqm0bO0v2WzIuSejrZZXWvDYM+OAT58YU//PhkNz+rzA4INTHeWyhRx2/OJNvyKvSL0dCVBGWyCAKuqvUSa8JQbLD/NXHQfgwFUt9OZst1EqOVXIq8fQBwN5rGqSkRrdKWimZjvHjXfuTrpYxkG2a/SCyE1BAOWhMDb8CzbUFXm7rXf2+xqML/J5Vc2WqC2b8HkhvyHuTzL1jhaGcDWsOOetxFFhWHQy5VPHNsE4VjZrGMmo7PwY5mSsOFaHCNKythIDLveih0GQ+QIg3ssLs/KgGW5stHu8JQAhlPWNgSa3+CuBk3ZUPwqGMcyP1z1BRc28gMHNJwytiGwysnI6c+4MsFCoTwc6jWt3ACuVokao9uCKvNWgtfA2NIHTR8HnwkKLMnqUPLemHFGqdpz2eYg875wUzhZGAp8N1bQUChdHbo0WFWcyxWopNwqJGkPTt77M1H4oktXLt7lpbaFHtLB/q4Bb8W+68I8E2KbzLANgoZClddynK23OnBagCgjJ3DyjFwOIyHspk7bFTS3XWXlogCW2HhkT+SHDZMDzNzzLr3vYVxesWwAyr6XEPZYvFUUHEvr7n3yiP7LBHbfSmHeSGHAll33mAm2d99O4eulAdJV4K63as67dMpmHPd7yQqxNyNwq84vviyzi9SLx7ASHOxTFKFQs6TOwdXEN4BJJ1nPi8b10qqogCVR43MwxkJWyzyQ5Hspr4rRBlEByxhfN1vdk3kJEFyWlYLK5tCJy3ZHKTcMN0qy8yEPiSnhUt3fXyjtd4whMB/L6DxW7rU070WuM9+SkvUeqOL11FECqw8u+atrg21ssw0rku0wmZeOIB84rs/RAss0ummzeNRANIVXRSs3FBleyjsMma0T35L2L2ZeVStgmcZqZnQdxNMme+SoQ2E+A6QvgayDeKqRVWLnVbXzWE3UtzReuE6r3lp4LG3KJ+MjgU4Cj1sxcc8FDtYRW8qmbBVcK2D1Voq8qybvCnVxJat1vCquPGAZqHpUpGYfTT4xlrRH03lVLTnWYKM1AxRDolbMqyIXQWsrkJbwFPaJ4LyekCkQKahMm0MeOLUNZLULhYMd1vCtEOKp5OjW3UlQP15V+1C4R98iXCSCKe4Mq5pv6ch6vMllvp25JSMtpxFPq+RbTUsuc2FQ61DY17eEZxMzfauCLSdSXlW1N+WCRFOuEcDS6ls++ZaU//XAXm9e1RiONSxBaDYH+khW71de1UhgmU5p+JbrxK5GY3PdBk3ocv1MY0Lh4EoxSXFZYiiXfGs/86rGeqw+mWe+YWzQEC74zX7nVY0HVkbmF1ZEN7TYnqzW8armkPXhCBEsFBougt3OpGmQj2NbKr6lvMkmFl7VsynOgrlzovd5+8bZuRUJLXBVtnJgZZ1Pk+cRaC7vRG+fOq3eeGX+gquO5WRezLcUF+nGwKtGpY1sPbF2PCoFVtnMdkmirfiWYHOgFFQ+9KqyXGQI4bVSYHEGwQWJHp5lUlLNPekTC6/ipI18TNpx3qwyYJXNqryRPvJ4PjYH6kDlPrnMbUfVIbEyYHFmlQGXL7GwLAwXzb5xIOd43z3Lb0+b9rjAykKwgj9GzbEkochn5yWD0PegBclqKahMXb427UknjA+qUQQ+7x5L3HEBcdbMJgnIMw86dLJa+rwPsj7cbwnQqyLy3oEl6bQxmO+rpLV8yySrje6GmJ6XALoK0iz1xFUcifMKrBg7nOtbHcFNNgjwcQJ4H5EmieA2AP6LAy5ffLHotyUTuAqv5RVYXMLuk7SPAgArRCN9DAgOAkCyh4gD3CGiLcDkg1H1VzF4g7/N6s/AAz65bI9CePpIuUhVpHKwu+PaiAncSyl9dqR5EHcQYJMIqHBFGWDTnsTmXK1OCw9vwDq2sPwWt1G+Z8+4doxOVpPxVJ8Y3wf8GwD8fbhMFRymqF3S/KjPUO0FWJJ473MpzgF28WCQscujjOd3APDmnjDpSa9itCUrwhWi8/p8TQLnwBIT9goONZQNykf4CdJ9QPBw2XO73/8FANMer8CtGG6EkUxsX212DqwYOsUExJ5iQzP9AAAdKqsHEYkI3unP/gC8alRIlOzq8EFFnAJL7IYjGYh8cPaSX3qsDFgA+E8A+KspF2LxoeOOH33KRx7RKbAkhN0ncSwHRHGJfKMcIpwAgE8C0IPj6kKA9wjwdmygMm0OLT84A5Z0K7Cv3JkWVPlzg+AioIcQ4P6iOhHxH0D4ts+zibZ9CRlBnACrjoS9bND6AOvg1yFNH++LpIi3kWAzJfiV6x2vZW2Sfi9NX7kk8k6AJSHsxji+84HSAeCUf/LU8hGi/7z7+tlvstI5nDqrKCOe9I42AVgDK6S7rWJgmvAbkonvymtZAyvmfGATQOGiDyGIvBWwJLmpGJfkLgatLnVIxspFHlENrBCzoC6DGGM7q84jqoElidvG0EZeKDP4my8/l73Mu/34sUCVfFgFLOlKw4+ZZLUa9y57QlAaaVtQWlQ0JbftHjwoXNYQGyKvApbUW5V1oP0+Xgtot1aLgSV1p/GarG0ZxwLaPKIGWKJbXDiNb8vEbQGN1xIDS6JbxW2utnVcC2g2DMiBdWr5vORedW7j23LxWkBD4sXAku5iiNdcbcu4FtBsBJQDS3GnOrcDbbk4LVAJxzJdb1eGcQLAR6s0YdC0Q+yx8sbn+5WSBKaAcJIgOy7VfhpkAS2orIBVpf0MiH39Xn4Pqpf60eNkI8rvGfXSdOrQqk2KTe2xvPSmrbQxFmiB1ZihjKsjLbDiGo/GtKYFVmOGMq6OtMCKazwa05oWWI0Zyrg60gIrrvFoTGtaYDVmKOPqSAusuMajMa35H5bIJTyJlhIeAAAAAElFTkSuQmCC;strokeWidth=2;points=[];labelBackgroundColor=none;rounded=0;html=1;whiteSpace=wrap;" vertex="1" parent="1">
            <mxGeometry x="236.5" y="210" width="47" height="47" as="geometry" />
          </mxCell>
        </UserObject>
        <mxCell id="xNk824SL1mtJElE5JXy6-11" value="缺陷SQL定位" style="text;html=1;align=center;verticalAlign=middle;whiteSpace=wrap;rounded=0;fontSize=16;" parent="1" vertex="1">
          <mxGeometry x="210" y="250" width="100" height="30" as="geometry" />
        </mxCell>
        <mxCell id="xNk824SL1mtJElE5JXy6-19" value="剪枝加速" style="text;html=1;align=center;verticalAlign=middle;whiteSpace=wrap;rounded=0;fontSize=16;" parent="1" vertex="1">
          <mxGeometry x="170" y="330" width="70" height="30" as="geometry" />
        </mxCell>
        <mxCell id="HH55Jwbrk8NLowNyaDaS-3" value="VS" style="ellipse;whiteSpace=wrap;html=1;aspect=fixed;fontStyle=1;fontSize=17;strokeWidth=3;fillColor=#e1d5e7;strokeColor=#C3ABD0;fontColor=#9673A6;textOpacity=70;opacity=90;" vertex="1" parent="1">
          <mxGeometry x="659" y="289" width="40" height="40" as="geometry" />
        </mxCell>
        <mxCell id="HH55Jwbrk8NLowNyaDaS-5" value="DB状态对比" style="text;html=1;align=center;verticalAlign=middle;whiteSpace=wrap;rounded=0;fontSize=16;" vertex="1" parent="1">
          <mxGeometry x="632" y="332" width="94" height="30" as="geometry" />
        </mxCell>
        <mxCell id="HH55Jwbrk8NLowNyaDaS-7" value="" style="endArrow=none;dashed=1;html=1;dashPattern=1 3;strokeWidth=2;rounded=0;" edge="1" parent="1">
          <mxGeometry width="50" height="50" relative="1" as="geometry">
            <mxPoint x="630" y="360" as="sourcePoint" />
            <mxPoint x="630" y="280" as="targetPoint" />
          </mxGeometry>
        </mxCell>
        <mxCell id="HH55Jwbrk8NLowNyaDaS-8" value="DDL" style="text;html=1;align=center;verticalAlign=middle;whiteSpace=wrap;rounded=0;fontSize=16;" vertex="1" parent="1">
          <mxGeometry x="649" y="252.25" width="60" height="30" as="geometry" />
        </mxCell>
        <mxCell id="HH55Jwbrk8NLowNyaDaS-9" value="DML" style="text;html=1;align=center;verticalAlign=middle;whiteSpace=wrap;rounded=0;fontSize=16;" vertex="1" parent="1">
          <mxGeometry x="561.01" y="252.25" width="60" height="30" as="geometry" />
        </mxCell>
      </root>
    </mxGraphModel>
  </diagram>
</mxfile>
